<svg xmlns="http://www.w3.org/2000/svg" viewBox="0 0 16 16" fill="currentColor">
  <path d="M12.23 5.26c-1.04 0-1.48.49-2.21.49-.75 0-1.32-.49-2.24-.49-1.02 0-1.95.57-2.62 1.54C4.1 8.32 4.4 10.7 5.4 12.45c.48.84 1.11 1.77 1.92 1.77.77 0 1.09-.49 2.05-.49s1.28.49 2.05.49c.81 0 1.44-.93 1.92-1.77.54-.94.75-1.87.77-1.92-.05-.02-1.5-.6-1.51-2.26-.01-1.42 1.16-2.1 1.21-2.13-.66-1-1.69-1.1-2.05-1.13-.93-.07-1.71.51-2.16.51-.47 0-1.18-.5-1.95-.5zM11.76 2c.11.85-.24 1.7-.71 2.29-.48.59-1.27 1.05-2.03 1.05-.1-.82.29-1.69.73-2.26.5-.63 1.35-1.08 2.01-1.08z"/>
</svg>
