<svg xmlns="http://www.w3.org/2000/svg" viewBox="0 0 24 24" fill="currentColor">
  <path d="M14.24,12.01L16.56,14.33C16.84,13.61 17,12.82 17,12C17,11.18 16.84,10.41 16.57,9.69L14.24,12.01M11.5,4.07C12.28,4.08 13.04,4.19 13.76,4.4L11.5,6.67L11.5,4.07M11.5,19.93C10.73,19.92 9.97,19.8 9.24,19.58L11.5,17.33L11.5,19.93M8.45,5.03C9.23,4.67 10.07,4.42 10.95,4.31L10.95,10.32L5.3,4.67C6.28,4.25 7.34,4 8.45,5.03M4.66,17.38C3.96,16.23 3.5,14.88 3.5,13.44C3.5,11.08 4.41,8.94 5.9,7.36L11.5,12.95L5.9,18.54C5.43,18.12 5.03,17.63 4.66,17.38M12.05,10.13L7.3,5.38C8.07,5 8.92,4.75 9.82,4.65L12.05,6.88V10.13M10.33,19.7C9.56,19.56 8.82,19.32 8.13,19L12.05,15.08V19.07C11.42,19.35 10.88,19.58 10.33,19.7M17.69,14.9C16.78,16.75 15.17,18.16 13.21,18.76L13.21,14.89L17.69,14.9M16.76,9.17C17.63,10.37 18.16,11.84 18.16,13.44C18.16,15.06 17.62,16.54 16.73,17.76L12.05,13.09L16.76,9.17Z" />
</svg>
