<svg xmlns="http://www.w3.org/2000/svg" viewBox="0 0 24 24" fill="currentColor">
  <path d="M21.62,16.68L18.67,8.21C18.46,7.62 17.94,7.18 17.31,7.07C16.69,6.95 16.05,7.17 15.64,7.66L13.56,10.19C13.38,10.42 13.14,10.59 12.86,10.69L9.93,11.78C9.59,11.91 9.22,11.92 8.88,11.81L6.8,11.22C6.4,11.09 6.05,10.84 5.8,10.5L3.29,7.05C2.87,6.47 2.17,6.19 1.5,6.35C0.83,6.5 0.33,7.05 0.21,7.73L0,9.28C0.05,10.28 0.38,11.24 0.95,12.04L5.5,18.3C6.18,19.22 7.14,19.92 8.24,20.3L12.74,21.94C13.31,22.15 13.92,22.23 14.53,22.2C15.13,22.16 15.72,22 16.26,21.72L20.86,19.34C21.69,18.91 22.23,18.08 22.31,17.14C22.39,16.19 22,15.28 21.62,16.68Z" />
</svg>
