<svg xmlns="http://www.w3.org/2000/svg" viewBox="0 0 24 24" fill="currentColor">
  <path d="M9.5,2C9.19,2 8.89,2.03 8.59,2.07C12.23,3.54 14.32,7.5 13.64,11.7C13.15,14.92 10.6,17.47 7.38,17.96C6.38,18.12 5.39,18.08 4.44,17.86C5.2,19.03 6.3,19.96 7.64,20.54C9,21.12 10.5,21.31 11.95,21.08C13.41,20.84 14.76,20.19 15.83,19.21C16.91,18.23 17.67,16.96 18,15.57C18.33,14.19 18.22,12.73 17.7,11.42C17.18,10.11 16.27,8.98 15.09,8.19C13.92,7.4 12.53,6.99 11.1,7C10.23,7.01 9.37,7.18 8.57,7.5C8.94,5.61 8.59,3.63 7.58,2C7.85,2 8.18,2 8.5,2C8.83,2 9.17,2 9.5,2Z" />
</svg>
