<svg xmlns="http://www.w3.org/2000/svg" viewBox="0 0 24 24" fill="currentColor">
  <path d="M12 6C8.62 6 5.5 7.12 3 9L1.2 6.6C4.21 4.34 7.95 3 12 3C16.05 3 19.79 4.34 22.8 6.6L21 9C18.5 7.12 15.38 6 12 6M16.84 13.41C17.18 13.07 17.18 12.53 16.84 12.19C16.5 11.85 15.96 11.85 15.62 12.19L12 15.82L8.38 12.19C8.04 11.85 7.5 11.85 7.16 12.19C6.82 12.53 6.82 13.07 7.16 13.41L11.5 17.75C11.84 18.09 12.16 18.09 12.5 17.75L16.84 13.41M12 9C10.35 9 8.85 9.5 7.6 10.4L6.5 8.8C8.07 7.67 9.97 7 12 7C14.03 7 15.93 7.67 17.5 8.8L16.4 10.4C15.15 9.5 13.65 9 12 9Z"/>
</svg>
